# xmcd
#
# Track frame offsets:
# 150
# 2931
# 19170
# 38342
# 52871
# 68115
# 84654
# 102985
# 123177
# 141736
# 159635
# 175689
# 206598
#
# Disc length: 3387 seconds
#
#
# Revision: 2
# Processed by: cddbd v1.4PL0 Copyright (c) Steve Scherf et al.
# Submitted via: FreeRIP 2.52 
#
DISCID=a80d390d
DTITLE=NOEL(노을) - 노을
DYEAR=2003
DGENRE=K-POP
TTITLE0=노을은 해가 토해낸 피다(intro)
TTITLE1=붙잡고도
TTITLE2=아무리
TTITLE3=인연
TTITLE4=I know
TTITLE5=Tonight '우성 solo'
TTITLE6=100일이란 시간 '성호 solo'
TTITLE7=보다 '상곤 solo'
TTITLE8=니가 있는게 '균성 solo'
TTITLE9=니가 돌아온 날
TTITLE10=또 한번 사랑은 가고(noel live remix)
TTITLE11=작은기도
TTITLE12=데이타
EXTD=Noel 1집 앨범
EXTT0=
EXTT1=
EXTT2=
EXTT3=
EXTT4=
EXTT5=
EXTT6=
EXTT7=
EXTT8=
EXTT9=
EXTT10=
EXTT11=
EXTT12=
PLAYORDER=
